<?xml version="1.0" encoding="utf-8"?>
<!-- Generator: Adobe Illustrator 24.2.1, SVG Export Plug-In . SVG Version: 6.00 Build 0)  -->
<svg version="1.1" id="Layer_1" xmlns="http://www.w3.org/2000/svg" xmlns:xlink="http://www.w3.org/1999/xlink" x="0px" y="0px"
	 viewBox="0 0 96.29 101.43" style="enable-background:new 0 0 96.29 101.43;" xml:space="preserve">
<style type="text/css">
	.st0{fill:none;stroke:#465C7D;stroke-width:8;stroke-miterlimit:10;}
	.st1{fill:none;stroke:#465C7D;stroke-width:7;stroke-miterlimit:10;}
	.st2{fill:none;stroke:#465C7D;stroke-width:4;stroke-miterlimit:10;}
	.st3{fill:#465C7D;}
</style>
<g>
	<path class="st0" d="M81.77,41.31v36.39c0,6.6-5.4,12-12,12H24.61c-6.6,0-12-5.4-12-12V41.31"/>
	<path class="st0" d="M69.77,26.7c6.6,0,12,5.4,12,12v36.39"/>
	<path class="st0" d="M12.61,75.09V38.7c0-6.6,5.4-12,12-12"/>
	<ellipse class="st1" cx="47.74" cy="31.07" rx="22.07" ry="23.04"/>
	<ellipse transform="matrix(0.0441 -0.999 0.999 0.0441 4.4352 86.3111)" class="st2" cx="47.32" cy="40.84" rx="4.11" ry="4.25"/>
	<path class="st3" d="M48.36,37.68L48.36,37.68c-1.01-0.43-1.48-1.58-1.03-2.56l3.25-7.16c0.44-0.98,1.64-1.43,2.65-1l0,0
		c1.01,0.43,1.48,1.58,1.03,2.56l-3.25,7.16C50.56,37.66,49.37,38.11,48.36,37.68z"/>
</g>
</svg>
