<svg width="362" height="137" viewBox="0 0 362 137" fill="none" xmlns="http://www.w3.org/2000/svg">
<path d="M162.592 50.9375L161.713 55.9912H145.722L143.598 67.9297H159.589L158.71 72.9834H142.719L140.619 84.9219H156.61L155.707 90H134.662L141.547 50.9375H162.592ZM186.225 78.623L186.884 74.9121C186.868 73.3333 186.339 71.901 185.297 70.6152C183.881 68.9225 181.977 68.0762 179.584 68.0762C177.175 68.0762 174.97 68.9225 172.968 70.6152C170.982 72.3079 169.778 74.3587 169.354 76.7676C168.931 79.1602 169.42 81.2109 170.819 82.9199C172.219 84.6126 174.123 85.459 176.532 85.459C178.925 85.459 181.122 84.6126 183.124 82.9199C184.621 81.6341 185.655 80.2018 186.225 78.623ZM188.349 66.6357L188.642 64.8779H193.72L189.301 90.0244H184.223L184.784 86.875C181.887 89.3978 178.827 90.6592 175.604 90.6592C171.763 90.6592 168.728 89.3083 166.498 86.6064C164.268 83.8883 163.495 80.6087 164.179 76.7676C164.846 72.9264 166.775 69.6549 169.965 66.9531C173.155 64.235 176.671 62.876 180.512 62.876C183.734 62.876 186.347 64.1292 188.349 66.6357ZM202.313 83.0176C202.33 83.7663 202.46 84.2952 202.704 84.6045C203.209 85.1904 203.876 85.4834 204.706 85.4834C205.536 85.4834 206.301 85.1904 207.001 84.6045C207.701 84.0186 208.124 83.2943 208.271 82.4316C208.417 81.6016 208.246 80.8936 207.758 80.3076C207.432 79.9007 206.675 79.2741 205.487 78.4277C203.843 77.4349 202.704 76.556 202.069 75.791C200.963 74.4564 200.58 72.8532 200.922 70.9814C201.247 69.0934 202.191 67.4821 203.754 66.1475C205.333 64.7965 207.066 64.1211 208.954 64.1211C210.842 64.1211 212.299 64.7559 213.324 66.0254C214.073 66.9206 214.472 67.9215 214.521 69.0283L209.369 70.4443C209.32 70.0374 209.247 69.7689 209.149 69.6387C208.922 69.3457 208.563 69.1992 208.075 69.1992C207.587 69.1992 207.131 69.3783 206.708 69.7363C206.301 70.0781 206.057 70.4932 205.976 70.9814C205.878 71.4697 205.976 71.8848 206.269 72.2266C206.529 72.5195 207.139 73.016 208.1 73.7158C209.923 74.8226 211.208 75.8317 211.957 76.7432C213.259 78.3382 213.715 80.2344 213.324 82.4316C212.934 84.6777 211.811 86.5983 209.955 88.1934C208.1 89.7721 206.049 90.5615 203.803 90.5615C201.573 90.5615 199.815 89.764 198.529 88.1689C197.618 87.0785 197.138 85.7194 197.089 84.0918L202.313 83.0176ZM222.895 98.4473H217.548L226.703 84.4092L220.795 64.8779H226.483L230.438 78.623L239.228 64.8779H244.892L222.895 98.4473ZM277.899 80.6982L281.073 84.0918C275.718 88.3073 270.461 90.415 265.302 90.415C259.784 90.415 255.422 88.4701 252.216 84.5801C249.009 80.6901 247.895 75.9863 248.871 70.4688C249.831 64.9674 252.598 60.2637 257.172 56.3574C261.762 52.4512 266.815 50.498 272.333 50.498C277.493 50.498 282.009 52.6058 285.883 56.8213L281.488 60.2637C278.559 57.1712 275.206 55.625 271.43 55.625C267.344 55.625 263.593 57.0736 260.175 59.9707C256.757 62.8678 254.69 66.3672 253.974 70.4688C253.241 74.5866 254.071 78.0941 256.464 80.9912C258.856 83.8883 262.095 85.3369 266.181 85.3369C269.957 85.3369 273.863 83.7907 277.899 80.6982ZM309.906 78.623L310.565 74.9121C310.549 73.3333 310.02 71.901 308.979 70.6152C307.562 68.9225 305.658 68.0762 303.266 68.0762C300.857 68.0762 298.651 68.9225 296.649 70.6152C294.664 72.3079 293.459 74.3587 293.036 76.7676C292.613 79.1602 293.101 81.2109 294.501 82.9199C295.901 84.6126 297.805 85.459 300.214 85.459C302.606 85.459 304.804 84.6126 306.806 82.9199C308.303 81.6341 309.337 80.2018 309.906 78.623ZM312.03 66.6357L312.323 64.8779H317.401L312.982 90.0244H307.904L308.466 86.875C305.569 89.3978 302.509 90.6592 299.286 90.6592C295.445 90.6592 292.41 89.3083 290.18 86.6064C287.95 83.8883 287.177 80.6087 287.86 76.7676C288.528 72.9264 290.456 69.6549 293.646 66.9531C296.837 64.235 300.352 62.876 304.193 62.876C307.416 62.876 310.028 64.1292 312.03 66.6357ZM332.318 50.9131L325.434 90H320.355L327.24 50.9131H332.318ZM354.169 81.3818L358.905 83.1885C357.375 84.8975 356.285 86.0286 355.634 86.582C352.427 89.3001 348.904 90.6592 345.062 90.6592C341.238 90.6592 338.202 89.3001 335.956 86.582C333.726 83.8639 332.953 80.5843 333.637 76.7432C334.304 72.902 336.233 69.6224 339.423 66.9043C342.629 64.1862 346.145 62.8271 349.97 62.8271C353.811 62.8271 356.854 64.1862 359.101 66.9043C359.556 67.4577 360.256 68.5726 361.2 70.249L355.805 72.1045C355.3 71.307 354.95 70.7943 354.755 70.5664C353.371 68.8737 351.475 68.0273 349.066 68.0273C346.674 68.0273 344.477 68.8818 342.475 70.5908C340.473 72.2835 339.26 74.3343 338.837 76.7432C338.414 79.1357 338.902 81.1865 340.302 82.8955C341.701 84.5882 343.598 85.4346 345.99 85.4346C348.399 85.4346 350.604 84.5882 352.606 82.8955C352.867 82.6676 353.388 82.1631 354.169 81.3818Z" fill="#DCE0E6"/>
<g clip-path="url(#clip0_10_20)">
<path d="M112.14 102.72H91.91C85.31 102.72 79.91 97.32 79.91 90.72V50.92C79.91 44.32 85.31 38.92 91.91 38.92H112.14C118.74 38.92 124.14 44.32 124.14 50.92V90.72C124.14 97.32 118.74 102.72 112.14 102.72Z" fill="#DCE0E6"/>
<path d="M114.4 48.26H89.65C86.37 48.26 83.72 50.92 83.72 54.19C83.72 57.47 86.38 60.12 89.65 60.12H114.4C117.68 60.12 120.33 57.46 120.33 54.19C120.34 50.92 117.68 48.26 114.4 48.26Z" fill="#567EBB"/>
<path d="M91.33 74.24C93.5833 74.24 95.41 72.4402 95.41 70.22C95.41 67.9998 93.5833 66.2 91.33 66.2C89.0767 66.2 87.25 67.9998 87.25 70.22C87.25 72.4402 89.0767 74.24 91.33 74.24Z" fill="#567EBB"/>
<path d="M101.93 74.24C104.183 74.24 106.01 72.4402 106.01 70.22C106.01 67.9998 104.183 66.2 101.93 66.2C99.6767 66.2 97.85 67.9998 97.85 70.22C97.85 72.4402 99.6767 74.24 101.93 74.24Z" fill="#567EBB"/>
<path d="M112.37 74.14C114.623 74.14 116.45 72.3402 116.45 70.12C116.45 67.8998 114.623 66.1 112.37 66.1C110.117 66.1 108.29 67.8998 108.29 70.12C108.29 72.3402 110.117 74.14 112.37 74.14Z" fill="#567EBB"/>
<path d="M91.33 83.83C93.5833 83.83 95.41 82.0302 95.41 79.81C95.41 77.5898 93.5833 75.79 91.33 75.79C89.0767 75.79 87.25 77.5898 87.25 79.81C87.25 82.0302 89.0767 83.83 91.33 83.83Z" fill="#567EBB"/>
<path d="M101.93 83.83C104.183 83.83 106.01 82.0302 106.01 79.81C106.01 77.5898 104.183 75.79 101.93 75.79C99.6767 75.79 97.85 77.5898 97.85 79.81C97.85 82.0302 99.6767 83.83 101.93 83.83Z" fill="#567EBB"/>
<path d="M112.37 83.73C114.623 83.73 116.45 81.9302 116.45 79.71C116.45 77.4898 114.623 75.69 112.37 75.69C110.117 75.69 108.29 77.4898 108.29 79.71C108.29 81.9302 110.117 83.73 112.37 83.73Z" fill="#567EBB"/>
<path d="M112.37 93.55C114.623 93.55 116.45 91.7502 116.45 89.53C116.45 87.3098 114.623 85.51 112.37 85.51C110.117 85.51 108.29 87.3098 108.29 89.53C108.29 91.7502 110.117 93.55 112.37 93.55Z" fill="#567EBB"/>
<path d="M102.71 93.37H91.09C88.98 93.37 87.25 91.64 87.25 89.53C87.25 87.42 88.98 85.69 91.09 85.69H102.71C104.82 85.69 106.55 87.42 106.55 89.53C106.55 91.64 104.83 93.37 102.71 93.37Z" fill="#567EBB"/>
</g>
<defs>
<clipPath id="clip0_10_20">
<rect width="255.12" height="141.73" fill="white" transform="translate(0 -5)"/>
</clipPath>
</defs>
</svg>
